{
	"patcher" : 	{
		"fileversion" : 1,
		"appversion" : 		{
			"major" : 6,
			"minor" : 0,
			"revision" : 3
		}
,
		"rect" : [ 8.0, 50.0, 1471.0, 962.0 ],
		"bglocked" : 0,
		"openinpresentation" : 0,
		"default_fontsize" : 12.0,
		"default_fontface" : 0,
		"default_fontname" : "Arial",
		"gridonopen" : 0,
		"gridsize" : [ 15.0, 15.0 ],
		"gridsnaponopen" : 0,
		"statusbarvisible" : 2,
		"toolbarvisible" : 1,
		"boxanimatetime" : 200,
		"imprint" : 0,
		"enablehscroll" : 1,
		"enablevscroll" : 1,
		"devicewidth" : 0.0,
		"description" : "",
		"digest" : "",
		"tags" : "",
		"boxes" : [ 			{
				"box" : 				{
					"fontname" : "Arial",
					"fontsize" : 12.0,
					"id" : "obj-6",
					"maxclass" : "message",
					"numinlets" : 2,
					"numoutlets" : 1,
					"outlettype" : [ "" ],
					"patching_rect" : [ 230.333344, 621.0, 317.0, 18.0 ],
					"text" : "c:/kite_hunt/sound_engine/oo_based_system_2/audio/ $1"
				}

			}
, 			{
				"box" : 				{
					"fontname" : "Arial",
					"fontsize" : 12.0,
					"id" : "obj-46",
					"maxclass" : "newobj",
					"numinlets" : 1,
					"numoutlets" : 1,
					"outlettype" : [ "" ],
					"patching_rect" : [ 231.5, 693.324951, 85.0, 20.0 ],
					"text" : "prepend open"
				}

			}
, 			{
				"box" : 				{
					"fontname" : "Arial",
					"fontsize" : 12.0,
					"id" : "obj-17",
					"maxclass" : "newobj",
					"numinlets" : 1,
					"numoutlets" : 1,
					"outlettype" : [ "" ],
					"patching_rect" : [ 230.333344, 650.0, 125.0, 20.0 ],
					"text" : "tosymbol @separator"
				}

			}
, 			{
				"box" : 				{
					"fontname" : "Arial",
					"fontsize" : 12.0,
					"id" : "obj-42",
					"maxclass" : "message",
					"numinlets" : 2,
					"numoutlets" : 1,
					"outlettype" : [ "" ],
					"patching_rect" : [ 187.0, 451.324951, 77.0, 18.0 ],
					"text" : "types WAVE"
				}

			}
, 			{
				"box" : 				{
					"fontname" : "Arial",
					"fontsize" : 12.0,
					"id" : "obj-22",
					"maxclass" : "newobj",
					"numinlets" : 2,
					"numoutlets" : 1,
					"outlettype" : [ "int" ],
					"patching_rect" : [ 121.5, 560.0, 51.0, 20.0 ],
					"text" : "random"
				}

			}
, 			{
				"box" : 				{
					"fontname" : "Arial",
					"fontsize" : 12.0,
					"id" : "obj-36",
					"maxclass" : "number",
					"numinlets" : 1,
					"numoutlets" : 2,
					"outlettype" : [ "int", "bang" ],
					"parameter_enable" : 0,
					"patching_rect" : [ 310.0, 569.0, 50.0, 20.0 ]
				}

			}
, 			{
				"box" : 				{
					"fontname" : "Arial",
					"fontsize" : 12.0,
					"id" : "obj-37",
					"maxclass" : "newobj",
					"numinlets" : 1,
					"numoutlets" : 1,
					"outlettype" : [ "bang" ],
					"patching_rect" : [ 310.0, 509.0, 24.0, 20.0 ],
					"text" : "t b"
				}

			}
, 			{
				"box" : 				{
					"fontname" : "Arial",
					"fontsize" : 12.0,
					"id" : "obj-38",
					"maxclass" : "newobj",
					"numinlets" : 1,
					"numoutlets" : 4,
					"outlettype" : [ "bang", "bang", "bang", "int" ],
					"patching_rect" : [ 154.5, 419.324951, 59.5, 20.0 ],
					"text" : "t b b b -1"
				}

			}
, 			{
				"box" : 				{
					"fontname" : "Arial",
					"fontsize" : 12.0,
					"id" : "obj-39",
					"maxclass" : "newobj",
					"numinlets" : 5,
					"numoutlets" : 4,
					"outlettype" : [ "int", "", "", "int" ],
					"patching_rect" : [ 310.0, 537.0, 73.0, 20.0 ],
					"text" : "counter"
				}

			}
, 			{
				"box" : 				{
					"fontname" : "Arial",
					"fontsize" : 13.0,
					"id" : "obj-40",
					"items" : [ "Freeze 10-Audio-1.wav", ",", "Freeze 10-Audio.wav", ",", "Freeze 10-Battery 3-1.wav", ",", "Freeze 10-Battery 3.wav", ",", "Freeze 10-Woodwind-Mello Flute-2.wav", ",", "Freeze 12-Reaktor5-1.wav", ",", "Freeze 12-Reaktor5.wav", ",", "Freeze 13-Reaktor5-1.wav", ",", "Freeze 13-Reaktor5.wav", ",", "Freeze 14-atmosynth-1.wav", ",", "Freeze 15-Audio.wav", ",", "Freeze 2-Audio-1.wav", ",", "Freeze 2-colder1.wav", ",", "Freeze 29-Reaktor5.wav", ",", "Freeze 3-Audio-3.wav", ",", "Freeze 30-Reaktor5.wav", ",", "Freeze 4-Reaktor5-2.wav", ",", "Freeze 5-Battery 3-1.wav", ",", "Freeze 5-Reaktor5-3.wav", ",", "Freeze 5-Reaktor5-4.wav", ",", "Freeze 5-Reaktor5-5.wav", ",", "Freeze 6-Reaktor5.wav", ",", "Freeze 8-Audio-1.wav", ",", "Freeze 8-Audio.wav", ",", "Freeze 8-Kit-Wicked-1.wav", ",", "Freeze 8-Reaktor5.wav", ",", "Freeze 9-Operator-1.wav", ",", "Freeze 9-Operator-2.wav", ",", "Freeze 9-Operator-3.wav", ",", "Freeze 9-Operator-4.wav", ",", "Freeze 9-Reaktor5.wav", ",", "Freeze addAmbience.wav", ",", "Freeze addBeats-1.wav", ",", "Freeze Bass 1-2.wav", ",", "Freeze Bass 1-3.wav", ",", "Freeze Bass 2-1.wav", ",", "Freeze Bass 2-2.wav", ",", "Freeze Bass-12.wav", ",", "Freeze Beat1-22.wav", ",", "Freeze Beat1-23.wav", ",", "Freeze Beat1-24.wav", ",", "Freeze Beat1-25.wav", ",", "Freeze Beat1-26.wav", ",", "Freeze Beat1-27.wav", ",", "Freeze Beat1-28.wav", ",", "Freeze Beat1-29.wav", ",", "Freeze Beat1-30.wav", ",", "Freeze Beat1-31.wav", ",", "Freeze Beat1-32.wav", ",", "Freeze Beat1-33.wav", ",", "Freeze Beat1-34.wav", ",", "Freeze Beat1-35.wav", ",", "Freeze Beat1-36.wav", ",", "Freeze Beat1-37.wav", ",", "Freeze Beat1-38.wav", ",", "Freeze Beat1-39.wav", ",", "Freeze Beat1-40.wav", ",", "Freeze Beat1-41.wav", ",", "Freeze Beat1-42.wav", ",", "Freeze Beat1-43.wav", ",", "Freeze Beat1-44.wav", ",", "Freeze Beat1-45.wav", ",", "Freeze Beat1-46.wav", ",", "Freeze Beat1-47.wav", ",", "Freeze Beat1-48.wav", ",", "Freeze Beat1-49.wav", ",", "Freeze Beat1-50.wav", ",", "Freeze Beat1-51.wav", ",", "Freeze Beat1-52.wav", ",", "Freeze Beat1-53.wav", ",", "Freeze Beat1-57.wav", ",", "Freeze Beat1-60.wav", ",", "Freeze Beat1-62.wav", ",", "Freeze Beat1-63.wav", ",", "Freeze Beat1-64.wav", ",", "Freeze Beat1-65.wav", ",", "Freeze Beat1-66.wav", ",", "Freeze Beat1-67.wav", ",", "Freeze Beat1-68.wav", ",", "Freeze Beat1-69.wav", ",", "Freeze Beat1-70.wav", ",", "Freeze Beat1-71.wav", ",", "Freeze Beat1-72.wav", ",", "Freeze Beat1-73.wav", ",", "Freeze Beat1-74.wav", ",", "Freeze Beat1-75.wav", ",", "Freeze Beat1-76.wav", ",", "Freeze Beat1-77.wav", ",", "Freeze Beat1-78.wav", ",", "Freeze Beat1-79.wav", ",", "Freeze Beat1-80.wav", ",", "Freeze Beat1-81.wav", ",", "Freeze Beat1-82.wav", ",", "Freeze Beat1-83.wav", ",", "Freeze Beat1-84.wav", ",", "Freeze Beat1-85.wav", ",", "Freeze Beat1-86.wav", ",", "Freeze Beat1-87.wav", ",", "Freeze Beat1-88.wav", ",", "Freeze Beat1-89.wav", ",", "Freeze Beat1-90.wav", ",", "Freeze Beat1-91.wav", ",", "Freeze Beat1-92.wav", ",", "Freeze Beat1-93.wav", ",", "Freeze Beat1-94.wav", ",", "Freeze Beat1-95.wav", ",", "Freeze Beat1-96.wav", ",", "Freeze Beat1-97.wav", ",", "Freeze Beat2-32.wav", ",", "Freeze Beat2-33.wav", ",", "Freeze Beat2-36.wav", ",", "Freeze Bits-1.wav", ",", "Freeze Bits-2.wav", ",", "Freeze Bits-3.wav", ",", "Freeze Bits-4.wav", ",", "Freeze Bits.wav", ",", "Freeze Chords-1.wav", ",", "Freeze Chords-2.wav", ",", "Freeze Chords-3.wav", ",", "Freeze Chords-4.wav", ",", "Freeze Extra-4.wav", ",", "Freeze HarmoDummy.wav", ",", "Freeze Main1-12.wav", ",", "Freeze Main1-13.wav", ",", "Freeze Main1-27.wav", ",", "Freeze Main1-28.wav", ",", "Freeze Main1-29.wav", ",", "Freeze Main1-31.wav", ",", "Freeze Main1-8.wav", ",", "Freeze Main1-9.wav", ",", "Freeze Main2-1.wav", ",", "Freeze Main2-10.wav", ",", "Freeze Main2-13.wav", ",", "Freeze Main2-14.wav", ",", "Freeze Main2-2.wav", ",", "Freeze Roots-3.wav", ",", "Freeze Roots-5.wav", ",", "Freeze Roots-6.wav", ",", "Freeze Special1-12.wav", ",", "Freeze Special1-14.wav", ",", "Freeze Special1-7.wav", ",", "Freeze ummingAmb.wav" ],
					"maxclass" : "umenu",
					"numinlets" : 1,
					"numoutlets" : 3,
					"outlettype" : [ "int", "", "" ],
					"parameter_enable" : 0,
					"patching_rect" : [ 174.833344, 529.0, 130.0, 21.0 ]
				}

			}
, 			{
				"box" : 				{
					"fontname" : "Arial",
					"fontsize" : 13.0,
					"id" : "obj-43",
					"maxclass" : "newobj",
					"numinlets" : 1,
					"numoutlets" : 2,
					"outlettype" : [ "", "int" ],
					"patching_rect" : [ 174.833344, 471.0, 357.0, 21.0 ],
					"text" : "folder c:/kite_hunt/sound_engine/oo_based_system_2/audio"
				}

			}
, 			{
				"box" : 				{
					"fontname" : "Arial",
					"fontsize" : 12.0,
					"id" : "obj-8",
					"maxclass" : "newobj",
					"numinlets" : 1,
					"numoutlets" : 2,
					"outlettype" : [ "int", "bang" ],
					"patching_rect" : [ 74.0, 309.324951, 32.5, 20.0 ],
					"text" : "t i b"
				}

			}
, 			{
				"box" : 				{
					"fontname" : "Arial",
					"fontsize" : 12.0,
					"id" : "obj-21",
					"maxclass" : "newobj",
					"numinlets" : 1,
					"numoutlets" : 1,
					"outlettype" : [ "int" ],
					"patching_rect" : [ 101.0, 800.0, 24.0, 20.0 ],
					"text" : "t 1"
				}

			}
, 			{
				"box" : 				{
					"id" : "obj-20",
					"maxclass" : "toggle",
					"numinlets" : 1,
					"numoutlets" : 1,
					"outlettype" : [ "int" ],
					"parameter_enable" : 0,
					"patching_rect" : [ 74.0, 733.0, 20.0, 20.0 ]
				}

			}
, 			{
				"box" : 				{
					"fontname" : "Arial",
					"fontsize" : 12.0,
					"id" : "obj-18",
					"maxclass" : "newobj",
					"numinlets" : 2,
					"numoutlets" : 2,
					"outlettype" : [ "signal", "bang" ],
					"patching_rect" : [ 71.0, 768.0, 49.0, 20.0 ],
					"save" : [ "#N", "sfplay~", "", 1, 120960, 0, "", ";" ],
					"text" : "sfplay~"
				}

			}
, 			{
				"box" : 				{
					"fontname" : "Arial",
					"fontsize" : 12.0,
					"id" : "obj-11",
					"maxclass" : "newobj",
					"numinlets" : 1,
					"numoutlets" : 1,
					"outlettype" : [ "" ],
					"patching_rect" : [ 74.0, 271.649902, 72.0, 20.0 ],
					"text" : "loadmess 1"
				}

			}
, 			{
				"box" : 				{
					"fontname" : "Arial",
					"fontsize" : 12.0,
					"id" : "obj-101",
					"maxclass" : "newobj",
					"numinlets" : 3,
					"numoutlets" : 1,
					"outlettype" : [ "signal" ],
					"patching_rect" : [ 71.0, 834.0, 66.0, 20.0 ],
					"text" : "clip~ -1. 1."
				}

			}
, 			{
				"box" : 				{
					"fontname" : "Arial",
					"fontsize" : 12.0,
					"id" : "obj-4",
					"maxclass" : "newobj",
					"numinlets" : 1,
					"numoutlets" : 1,
					"outlettype" : [ "signal" ],
					"patching_rect" : [ 66.0, 22.0, 37.0, 20.0 ],
					"text" : "in~ 1"
				}

			}
, 			{
				"box" : 				{
					"fontname" : "Arial",
					"fontsize" : 12.0,
					"id" : "obj-3",
					"maxclass" : "newobj",
					"numinlets" : 1,
					"numoutlets" : 0,
					"patching_rect" : [ 71.0, 917.0, 44.0, 20.0 ],
					"text" : "out~ 1"
				}

			}
, 			{
				"box" : 				{
					"fontname" : "Arial",
					"fontsize" : 12.0,
					"id" : "obj-2",
					"maxclass" : "newobj",
					"numinlets" : 1,
					"numoutlets" : 0,
					"patching_rect" : [ 15.0, 923.0, 37.0, 20.0 ],
					"saved_object_attributes" : 					{
						"attr_comment" : ""
					}
,
					"text" : "out 1"
				}

			}
, 			{
				"box" : 				{
					"fontname" : "Arial",
					"fontsize" : 12.0,
					"id" : "obj-1",
					"maxclass" : "newobj",
					"numinlets" : 1,
					"numoutlets" : 1,
					"outlettype" : [ "" ],
					"patching_rect" : [ 15.0, 22.0, 30.0, 20.0 ],
					"saved_object_attributes" : 					{
						"attr_comment" : ""
					}
,
					"text" : "in 1"
				}

			}
 ],
		"lines" : [ 			{
				"patchline" : 				{
					"destination" : [ "obj-3", 0 ],
					"disabled" : 0,
					"hidden" : 0,
					"source" : [ "obj-101", 0 ]
				}

			}
, 			{
				"patchline" : 				{
					"destination" : [ "obj-8", 0 ],
					"disabled" : 0,
					"hidden" : 0,
					"source" : [ "obj-11", 0 ]
				}

			}
, 			{
				"patchline" : 				{
					"destination" : [ "obj-46", 0 ],
					"disabled" : 0,
					"hidden" : 0,
					"source" : [ "obj-17", 0 ]
				}

			}
, 			{
				"patchline" : 				{
					"destination" : [ "obj-101", 0 ],
					"disabled" : 0,
					"hidden" : 0,
					"source" : [ "obj-18", 0 ]
				}

			}
, 			{
				"patchline" : 				{
					"destination" : [ "obj-21", 0 ],
					"disabled" : 0,
					"hidden" : 0,
					"source" : [ "obj-18", 1 ]
				}

			}
, 			{
				"patchline" : 				{
					"destination" : [ "obj-18", 0 ],
					"disabled" : 0,
					"hidden" : 0,
					"source" : [ "obj-20", 0 ]
				}

			}
, 			{
				"patchline" : 				{
					"destination" : [ "obj-20", 0 ],
					"disabled" : 0,
					"hidden" : 0,
					"midpoints" : [ 110.5, 830.0, 285.5, 830.0, 285.5, 714.0, 83.5, 714.0 ],
					"source" : [ "obj-21", 0 ]
				}

			}
, 			{
				"patchline" : 				{
					"destination" : [ "obj-40", 0 ],
					"disabled" : 0,
					"hidden" : 0,
					"source" : [ "obj-22", 0 ]
				}

			}
, 			{
				"patchline" : 				{
					"destination" : [ "obj-22", 1 ],
					"disabled" : 0,
					"hidden" : 0,
					"source" : [ "obj-36", 0 ]
				}

			}
, 			{
				"patchline" : 				{
					"destination" : [ "obj-39", 0 ],
					"disabled" : 0,
					"hidden" : 0,
					"source" : [ "obj-37", 0 ]
				}

			}
, 			{
				"patchline" : 				{
					"destination" : [ "obj-22", 0 ],
					"disabled" : 0,
					"hidden" : 0,
					"source" : [ "obj-38", 0 ]
				}

			}
, 			{
				"patchline" : 				{
					"destination" : [ "obj-39", 3 ],
					"disabled" : 0,
					"hidden" : 0,
					"source" : [ "obj-38", 3 ]
				}

			}
, 			{
				"patchline" : 				{
					"destination" : [ "obj-42", 0 ],
					"disabled" : 0,
					"hidden" : 0,
					"source" : [ "obj-38", 2 ]
				}

			}
, 			{
				"patchline" : 				{
					"destination" : [ "obj-43", 0 ],
					"disabled" : 0,
					"hidden" : 0,
					"source" : [ "obj-38", 1 ]
				}

			}
, 			{
				"patchline" : 				{
					"destination" : [ "obj-36", 0 ],
					"disabled" : 0,
					"hidden" : 0,
					"source" : [ "obj-39", 0 ]
				}

			}
, 			{
				"patchline" : 				{
					"destination" : [ "obj-6", 0 ],
					"disabled" : 0,
					"hidden" : 0,
					"source" : [ "obj-40", 1 ]
				}

			}
, 			{
				"patchline" : 				{
					"destination" : [ "obj-43", 0 ],
					"disabled" : 0,
					"hidden" : 0,
					"source" : [ "obj-42", 0 ]
				}

			}
, 			{
				"patchline" : 				{
					"destination" : [ "obj-37", 0 ],
					"disabled" : 0,
					"hidden" : 0,
					"source" : [ "obj-43", 0 ]
				}

			}
, 			{
				"patchline" : 				{
					"destination" : [ "obj-40", 0 ],
					"disabled" : 0,
					"hidden" : 0,
					"source" : [ "obj-43", 0 ]
				}

			}
, 			{
				"patchline" : 				{
					"destination" : [ "obj-18", 1 ],
					"disabled" : 0,
					"hidden" : 0,
					"source" : [ "obj-46", 0 ]
				}

			}
, 			{
				"patchline" : 				{
					"destination" : [ "obj-17", 0 ],
					"disabled" : 0,
					"hidden" : 0,
					"source" : [ "obj-6", 0 ]
				}

			}
, 			{
				"patchline" : 				{
					"destination" : [ "obj-20", 0 ],
					"disabled" : 0,
					"hidden" : 0,
					"source" : [ "obj-8", 0 ]
				}

			}
, 			{
				"patchline" : 				{
					"destination" : [ "obj-38", 0 ],
					"disabled" : 0,
					"hidden" : 0,
					"source" : [ "obj-8", 1 ]
				}

			}
 ],
		"dependency_cache" : [  ]
	}

}
